# xmcd
#
# Track frame offsets:
#	150
#	17737
#	30583
#	43845
#	59963
#	72064
#	83127
#	100660
#
# Disc length: 1548 seconds
# Revision: 0
# Processed by: cddbd v1.5.2PL0 Copyright (c) Steve Scherf et al.
# Submitted via: dBpowerAMP V12.0
#
DISCID=65060a08
DTITLE=Tennessee Stud - The First One
DYEAR=2007
DGENRE=Country
TTITLE0=Make me a pallet
TTITLE1=That's all
TTITLE2=The lucky one
TTITLE3=Bird dog
TTITLE4=My baby left me
TTITLE5=Moody river
TTITLE6=Sitting on top of the world
TTITLE7=Banks of the Ohio
EXTD=
EXTT0=
EXTT1=
EXTT2=
EXTT3=
EXTT4=
EXTT5=
EXTT6=
EXTT7=
PLAYORDER=
